<svg width="123" height="40" viewBox="0 0 123 40" fill="none" xmlns="http://www.w3.org/2000/svg">
<rect x="0.428711" width="122" height="40" rx="20" fill="#222B37"/>
<g clip-path="url(#clip0_3189_21540)">
<path d="M32.9324 19.4308L21.4809 30.4836C20.9447 30.1163 20.6263 29.5052 20.6319 28.8542V10.0073C20.6263 9.35629 20.9447 8.74527 21.4809 8.37793L32.9324 19.4308Z" fill="#2196F3"/>
<path d="M36.9395 15.5699L32.9325 19.4306L21.481 8.37775C21.5241 8.34423 21.569 8.31305 21.6155 8.28435C22.2208 7.91666 22.9767 7.90479 23.5932 8.25321L36.9395 15.5699Z" fill="#4CAF50"/>
<path d="M41.7956 19.4308C41.8031 20.1657 41.4047 20.8445 40.7602 21.1951L36.9396 23.2915L32.9326 19.4308L36.9396 15.5701L40.7602 17.6665C41.4047 18.017 41.8031 18.6959 41.7956 19.4308Z" fill="#F0BB1F"/>
<path d="M36.9395 23.291L23.5932 30.6077C22.9754 30.9507 22.2223 30.9388 21.6155 30.5765C21.569 30.5478 21.5241 30.5167 21.481 30.4831L32.9325 19.4303L36.9395 23.291Z" fill="#F15A2B"/>
</g>
<path d="M55.1852 13.5795H51.9835V14.8595H53.6892C53.4612 15.472 52.9048 15.8469 52.0565 15.8469C50.816 15.8469 50.0498 15.0515 50.0498 13.9635C50.0498 12.8389 50.8525 12.0435 51.9288 12.0435C52.6494 12.0435 53.2241 12.3726 53.4886 12.7932L54.7291 12.08C54.1909 11.2206 53.1602 10.6172 51.9379 10.6172C50.0589 10.6172 48.5903 12.0983 48.5903 13.9543C48.5903 15.792 50.0315 17.2732 52.0383 17.2732C53.8261 17.2732 55.1852 16.0846 55.1852 14.128V13.5795Z" fill="white"/>
<path d="M57.0113 15.7372V14.6035H59.2917V13.2138H57.0113V12.1532H59.5197V10.7452H55.5519V17.1452H59.5653V15.7372H57.0113Z" fill="white"/>
<path d="M64.2198 10.7452H59.4766V12.1532H61.1185V17.1452H62.5779V12.1532H64.2198V10.7452Z" fill="white"/>
<path d="M66.2269 10.7452V17.1452H67.6863V10.7452H66.2269Z" fill="white"/>
<path d="M72.6144 10.7452H67.8712V12.1532H69.5131V17.1452H70.9726V12.1532H72.6144V10.7452Z" fill="white"/>
<path d="M77.6681 17.2732C79.5015 17.2732 80.9883 15.8286 80.9883 13.9452C80.9883 12.0618 79.5015 10.6172 77.6681 10.6172C75.8347 10.6172 74.3479 12.0618 74.3479 13.9452C74.3479 15.8286 75.8347 17.2732 77.6681 17.2732ZM77.6681 15.8469C76.6282 15.8469 75.8073 15.088 75.8073 13.9452C75.8073 12.8023 76.6282 12.0435 77.6681 12.0435C78.7079 12.0435 79.5289 12.8023 79.5289 13.9452C79.5289 15.088 78.7079 15.8469 77.6681 15.8469Z" fill="white"/>
<path d="M84.9113 10.7452V14.2195L82.4485 10.7452H81.354V17.1452H82.8134V13.6709L85.2762 17.1452H86.3708V10.7452H84.9113Z" fill="white"/>
<path d="M55.1852 24.4503V24.6972C55.1852 25.4957 54.9024 26.1692 54.3369 26.7178C53.7713 27.2602 53.0264 27.5315 52.1021 27.5315C51.1291 27.5315 50.3265 27.2145 49.694 26.5806C49.0616 25.9406 48.7454 25.1574 48.7454 24.2309C48.7454 23.3044 49.0586 22.5242 49.6849 21.8903C50.3113 21.2503 51.1048 20.9303 52.0656 20.9303C52.6494 20.9303 53.1845 21.0705 53.671 21.3509C54.1636 21.6313 54.5436 22.0061 54.8112 22.4755L54.3825 22.7315C54.1696 22.3292 53.8534 22.0061 53.4338 21.7623C53.0203 21.5185 52.5643 21.3966 52.0656 21.3966C51.2386 21.3966 50.5575 21.6709 50.0224 22.2195C49.4934 22.7619 49.2288 23.4324 49.2288 24.2309C49.2288 25.0294 49.4964 25.7029 50.0315 26.2515C50.5667 26.7939 51.2568 27.0652 52.1021 27.0652C52.8501 27.0652 53.4551 26.861 53.9173 26.4526C54.3794 26.0442 54.6379 25.5292 54.6926 24.9075H51.9835V24.4503H55.1852Z" fill="white"/>
<path d="M61.6599 26.5715C61.0214 27.2115 60.243 27.5315 59.3248 27.5315C58.4065 27.5315 57.6282 27.2115 56.9897 26.5715C56.3512 25.9254 56.0319 25.1452 56.0319 24.2309C56.0319 23.3166 56.3512 22.5395 56.9897 21.8995C57.6282 21.2534 58.4065 20.9303 59.3248 20.9303C60.243 20.9303 61.0214 21.2534 61.6599 21.8995C62.2984 22.5395 62.6176 23.3166 62.6176 24.2309C62.6176 25.1452 62.2984 25.9254 61.6599 26.5715ZM57.3272 26.2423C57.8744 26.7909 58.5403 27.0652 59.3248 27.0652C60.1092 27.0652 60.772 26.7909 61.3133 26.2423C61.8605 25.6877 62.1342 25.0172 62.1342 24.2309C62.1342 23.4446 61.8605 22.7772 61.3133 22.2286C60.772 21.6739 60.1092 21.3966 59.3248 21.3966C58.5403 21.3966 57.8744 21.6739 57.3272 22.2286C56.7859 22.7772 56.5153 23.4446 56.5153 24.2309C56.5153 25.0172 56.7859 25.6877 57.3272 26.2423Z" fill="white"/>
<path d="M69.1067 26.5715C68.4682 27.2115 67.6898 27.5315 66.7716 27.5315C65.8534 27.5315 65.075 27.2115 64.4365 26.5715C63.798 25.9254 63.4787 25.1452 63.4787 24.2309C63.4787 23.3166 63.798 22.5395 64.4365 21.8995C65.075 21.2534 65.8534 20.9303 66.7716 20.9303C67.6898 20.9303 68.4682 21.2534 69.1067 21.8995C69.7452 22.5395 70.0645 23.3166 70.0645 24.2309C70.0645 25.1452 69.7452 25.9254 69.1067 26.5715ZM64.774 26.2423C65.3213 26.7909 65.9872 27.0652 66.7716 27.0652C67.5561 27.0652 68.2189 26.7909 68.7601 26.2423C69.3074 25.6877 69.581 25.0172 69.581 24.2309C69.581 23.4446 69.3074 22.7772 68.7601 22.2286C68.2189 21.6739 67.5561 21.3966 66.7716 21.3966C65.9872 21.3966 65.3213 21.6739 64.774 22.2286C64.2328 22.7772 63.9622 23.4446 63.9622 24.2309C63.9622 25.0172 64.2328 25.6877 64.774 26.2423Z" fill="white"/>
<path d="M77.3654 24.4503V24.6972C77.3654 25.4957 77.0826 26.1692 76.5171 26.7178C75.9515 27.2602 75.2066 27.5315 74.2823 27.5315C73.3093 27.5315 72.5067 27.2145 71.8742 26.5806C71.2418 25.9406 70.9256 25.1574 70.9256 24.2309C70.9256 23.3044 71.2388 22.5242 71.8651 21.8903C72.4915 21.2503 73.285 20.9303 74.2458 20.9303C74.8296 20.9303 75.3647 21.0705 75.8512 21.3509C76.3438 21.6313 76.7238 22.0061 76.9914 22.4755L76.5627 22.7315C76.3498 22.3292 76.0336 22.0061 75.614 21.7623C75.2005 21.5185 74.7445 21.3966 74.2458 21.3966C73.4188 21.3966 72.7377 21.6709 72.2026 22.2195C71.6736 22.7619 71.409 23.4324 71.409 24.2309C71.409 25.0294 71.6766 25.7029 72.2117 26.2515C72.7469 26.7939 73.437 27.0652 74.2823 27.0652C75.0303 27.0652 75.6353 26.861 76.0975 26.4526C76.5596 26.0442 76.8181 25.5292 76.8728 24.9075H74.1637V24.4503H77.3654Z" fill="white"/>
<path d="M79.0604 26.9738H82.0705V27.4309H78.577V21.0309H79.0604V26.9738Z" fill="white"/>
<path d="M83.5588 26.9738H86.7513V27.4309H83.0754V21.0309H86.7057V21.488H83.5588V23.9749H86.4777V24.432H83.5588V26.9738Z" fill="white"/>
<path d="M92.5417 21.0309C93.1133 21.0309 93.5876 21.2199 93.9646 21.5978C94.3417 21.9757 94.5302 22.448 94.5302 23.0149C94.5302 23.5818 94.3417 24.0541 93.9646 24.432C93.5876 24.8039 93.1133 24.9898 92.5417 24.9898H90.8542V27.4309H90.3708V21.0309H92.5417ZM92.5417 24.5326C92.9795 24.5326 93.3383 24.3894 93.618 24.1029C93.9038 23.8164 94.0467 23.4538 94.0467 23.0149C94.0467 22.5699 93.9038 22.2042 93.618 21.9178C93.3383 21.6313 92.9795 21.488 92.5417 21.488H90.8542V24.5326H92.5417Z" fill="white"/>
<path d="M96.2077 26.9738H99.2178V27.4309H95.7243V21.0309H96.2077V26.9738Z" fill="white"/>
<path d="M104.697 27.4309L104.077 25.8035H100.875L100.255 27.4309H99.7441L102.225 21.0309H102.736L105.208 27.4309H104.697ZM101.058 25.3463H103.904L102.481 21.6252L101.058 25.3463Z" fill="white"/>
<path d="M109.751 21.0309L107.425 24.7978V27.4309H106.942V24.7978L104.616 21.0309H105.163L107.188 24.3315L109.204 21.0309H109.751Z" fill="white"/>
<defs>
<clipPath id="clip0_3189_21540">
<rect width="22.8037" height="22.8571" fill="white" transform="translate(19.812 8)"/>
</clipPath>
</defs>
</svg>
