<svg width="141" height="40" viewBox="0 0 141 40" fill="none" xmlns="http://www.w3.org/2000/svg">
<path d="M37.9999 20.0015C37.9999 22.3888 36.79 24.5859 34.7652 25.8777L34.3947 26.113C36.6606 24.6691 34.6612 23.3834 32.9537 22.2925C32.0557 21.7188 29.3585 20.0015 29.3585 20.0015L20.5115 14.3621L12.6048 9.32235V0L34.7659 14.1252C36.79 15.4155 37.9999 17.6126 37.9999 20.0015Z" fill="url(#paint0_linear_3211_20608)"/>
<path d="M34.3941 26.1123L23.5423 33.0297C23.5323 33.0366 23.5231 33.042 23.513 33.0473C20.4346 34.987 20.5109 31.4339 20.5109 29.4385V25.6394L29.3579 20C29.3579 20 32.0551 21.7173 32.9531 22.2911C34.6614 23.3827 36.6608 24.6677 34.3941 26.1123Z" fill="url(#paint1_linear_3211_20608)"/>
<path d="M23.5127 33.0476C20.4343 34.9873 20.5105 31.4342 20.5105 29.4388V25.6382V16.3166L12.6038 11.2769L5.53821 6.77344V16.095L12.6038 20.5985V40.0002L23.5127 33.0476Z" fill="url(#paint2_linear_3211_20608)"/>
<path d="M3.03836 16.4595L0 14.5229V23.8445L3.03836 25.7811L10.9458 30.8208V21.4992L3.03836 16.4595Z" fill="url(#paint3_linear_3211_20608)"/>
<path d="M49.9999 20.2144C49.9999 15.7423 52.8683 12.3667 57.5851 12.3667C59.7098 12.3667 62.0258 13.2052 63.5768 14.9898L61.4521 16.7958C60.5172 15.8928 59.2424 15.2263 57.5851 15.2263C55.0992 15.2263 53.1232 17.0968 53.1232 20.2144C53.1232 23.0095 54.8655 25.2026 57.7126 25.2026C58.7962 25.2026 59.7948 24.9446 60.7722 24.3425V22.085H57.3727V19.5049H63.6406V26.0841C62.2807 27.2021 60.0286 27.9761 57.7126 27.9761C53.357 27.9749 49.9999 25.1154 49.9999 20.2144Z" fill="#414042"/>
<path d="M65.8065 22.5817C65.8065 19.4426 68.0162 17.1636 71.3095 17.1636C74.5391 17.1636 76.8338 19.3566 76.8338 22.5817C76.8338 25.8068 74.5391 27.9999 71.3095 27.9999C68.0162 27.9987 65.8065 25.7196 65.8065 22.5817ZM74.0079 22.5817C74.0079 20.8617 72.8606 19.6791 71.3095 19.6791C69.6947 19.6791 68.6111 20.9262 68.6111 22.5817C68.6111 24.2158 69.7372 25.4843 71.3095 25.4843C72.8181 25.4831 74.0079 24.2791 74.0079 22.5817Z" fill="#414042"/>
<path d="M78.364 25.5898L80.1487 23.3537C81.2748 24.6868 82.7197 25.2673 83.9095 25.2673C85.3543 25.2673 86.0767 24.6008 86.0767 23.6547C86.0767 22.5367 85.2693 22.1282 83.4421 21.5047C81.1686 20.6877 78.8952 19.6126 78.8952 16.7315C78.8952 14.2805 81.0199 12.4099 83.7395 12.3669C85.6093 12.3454 87.3515 13.0549 88.8176 14.302L87.0966 16.5822C85.843 15.5287 84.7381 15.0772 83.8033 15.0772C82.7621 15.0772 81.9972 15.6362 81.9972 16.6037C81.976 17.5498 82.8046 17.9583 84.5257 18.6463C87.1391 19.6783 89.2 20.3663 89.2 23.3119C89.2 26.6445 86.3317 27.9991 83.867 27.9991C81.9123 27.9979 79.9363 27.2453 78.364 25.5898Z" fill="#414042"/>
<path d="M91.687 24.5139V19.6548H90.4547V17.3339H91.687V13.8938L94.4491 13.5928V17.3339H97.275V19.656H94.4491V24.1281C94.4491 25.0311 94.7253 25.4611 95.3628 25.4611C95.7027 25.4611 96.2126 25.3321 96.6801 25.0956L97.4025 27.3532C96.7226 27.7187 96.0427 27.9982 94.6404 27.9982C92.8556 27.997 91.687 26.879 91.687 24.5139Z" fill="#414042"/>
<path d="M108.874 17.3328V27.8251H106.091V26.535H106.049C105.262 27.5026 104.136 27.9971 102.968 27.9971C100.737 27.9971 99.1645 26.8575 99.1645 23.6539V17.3328H101.927V22.9014C101.927 24.8365 102.5 25.4815 103.796 25.4815C105.007 25.4815 106.091 24.4495 106.091 22.4284V17.3328H108.874Z" fill="#414042"/>
<path d="M121.878 12.0012V27.8244H119.222V26.5559H119.179C118.457 27.4804 117.373 27.9964 115.992 27.9964C113.124 27.9964 111.02 25.8464 111.02 22.5998C111.02 19.4177 113.124 17.1601 115.907 17.1601C117.182 17.1601 118.266 17.6117 119.03 18.5147H119.094V12H121.878V12.0012ZM119.243 22.6213C119.243 20.9442 118.096 19.6757 116.502 19.6757C115.015 19.6757 113.846 20.8152 113.846 22.6213C113.846 24.3198 114.951 25.4809 116.502 25.4809C118.032 25.4809 119.243 24.3413 119.243 22.6213Z" fill="#414042"/>
<path d="M124.491 14.1302C124.491 13.1842 125.277 12.4102 126.212 12.4102C127.168 12.4102 127.955 13.1842 127.955 14.1302C127.955 15.0762 127.168 15.8503 126.212 15.8503C125.277 15.8503 124.491 15.0762 124.491 14.1302ZM124.81 17.3338H127.593V27.8261H124.81V17.3338Z" fill="#414042"/>
<path d="M129.973 22.5817C129.973 19.4426 132.182 17.1636 135.476 17.1636C138.705 17.1636 141 19.3566 141 22.5817C141 25.8068 138.705 27.9999 135.476 27.9999C132.182 27.9987 129.973 25.7196 129.973 22.5817ZM138.174 22.5817C138.174 20.8617 137.027 19.6791 135.476 19.6791C133.861 19.6791 132.777 20.9262 132.777 22.5817C132.777 24.2158 133.903 25.4843 135.476 25.4843C136.984 25.4831 138.174 24.2791 138.174 22.5817Z" fill="#414042"/>
<defs>
<linearGradient id="paint0_linear_3211_20608" x1="11.5623" y1="3.75726" x2="38.7538" y2="23.3968" gradientUnits="userSpaceOnUse">
<stop stop-color="#FF6666"/>
<stop offset="0.9995" stop-color="#FF3F71"/>
</linearGradient>
<linearGradient id="paint1_linear_3211_20608" x1="38.2931" y1="18.4276" x2="21.3016" y2="30.296" gradientUnits="userSpaceOnUse">
<stop stop-color="#FF6666"/>
<stop offset="0.9995" stop-color="#FF3F71"/>
</linearGradient>
<linearGradient id="paint2_linear_3211_20608" x1="29.8403" y1="33.8149" x2="2.8204" y2="20.0264" gradientUnits="userSpaceOnUse">
<stop stop-color="#FF6666"/>
<stop offset="0.9995" stop-color="#FF3F71"/>
</linearGradient>
<linearGradient id="paint3_linear_3211_20608" x1="25.9346" y1="32.9453" x2="4.75515" y2="22.1373" gradientUnits="userSpaceOnUse">
<stop stop-color="#FF6666"/>
<stop offset="0.9995" stop-color="#FF3F71"/>
</linearGradient>
</defs>
</svg>
