<svg width="123" height="40" viewBox="0 0 123 40" fill="none" xmlns="http://www.w3.org/2000/svg">
<rect x="0.428711" width="122" height="40" rx="20" fill="#222B37"/>
<path d="M27.0119 27.4279C24.1067 27.4122 21.7036 21.8568 21.7036 19.0276C21.7036 14.406 25.4046 13.3942 26.8309 13.3942C27.4737 13.3942 28.1601 13.6307 28.7655 13.8399C29.1888 13.9859 29.6266 14.1366 29.8701 14.1366C30.0159 14.1366 30.3594 14.0084 30.6626 13.8959C31.3093 13.6547 32.1141 13.355 33.0512 13.355C33.0529 13.355 33.0551 13.355 33.0567 13.355C33.7565 13.355 35.8781 13.4988 37.1537 15.2933L37.4525 15.7139L37.0225 16.0178C36.4082 16.4521 35.2873 17.2441 35.2873 18.8131C35.2873 20.6713 36.5567 21.386 37.1665 21.7297C37.4357 21.8814 37.7144 22.0378 37.7144 22.38C37.7144 22.6034 35.8111 27.4002 33.0472 27.4002C32.371 27.4002 31.8929 27.2098 31.4712 27.0418C31.0446 26.8718 30.6765 26.7253 30.0684 26.7253C29.7601 26.7253 29.3702 26.8619 28.9575 27.0068C28.3936 27.204 27.7552 27.4279 27.0309 27.4279H27.0119Z" fill="white"/>
<path d="M33.344 9.14062C33.4159 11.5719 31.5598 13.2586 29.7059 13.1528C29.4004 11.2126 31.5596 9.14062 33.344 9.14062Z" fill="white"/>
<path d="M48.0457 14.8573H49.3267L47.5846 10.0573H46.0913L44.3491 14.8573H45.6301L45.8863 14.103H47.7895L48.0457 14.8573ZM46.2377 13.0744L46.8379 11.3121L47.4382 13.0744H46.2377Z" fill="white"/>
<path d="M51.9191 11.4287L51.1579 13.6024L50.3966 11.4287H49.1815L50.5357 14.8573H51.7801L53.1343 11.4287H51.9191Z" fill="white"/>
<path d="M56.0513 11.4287V11.751C55.8098 11.4904 55.4511 11.3327 54.9607 11.3327C54.0017 11.3327 53.2112 12.1213 53.2112 13.143C53.2112 14.1647 54.0017 14.9533 54.9607 14.9533C55.4511 14.9533 55.8098 14.7956 56.0513 14.535V14.8573H57.1493V11.4287H56.0513ZM55.1803 13.9796C54.6752 13.9796 54.3092 13.6573 54.3092 13.143C54.3092 12.6287 54.6752 12.3064 55.1803 12.3064C55.6853 12.3064 56.0513 12.6287 56.0513 13.143C56.0513 13.6573 55.6853 13.9796 55.1803 13.9796Z" fill="white"/>
<path d="M57.9549 14.8573H59.0529V9.85156H57.9549V14.8573Z" fill="white"/>
<path d="M60.4054 11.127C60.7641 11.127 61.0642 10.8458 61.0642 10.5098C61.0642 10.1738 60.7641 9.89271 60.4054 9.89271C60.0467 9.89271 59.7466 10.1738 59.7466 10.5098C59.7466 10.8458 60.0467 11.127 60.4054 11.127ZM59.8564 14.8573H60.9544V11.4287H59.8564V14.8573Z" fill="white"/>
<path d="M63.9465 11.3327C63.4561 11.3327 63.0974 11.4904 62.8559 11.751V10.0573H61.7579V14.8573H62.8559V14.535C63.0974 14.7956 63.4561 14.9533 63.9465 14.9533C64.9055 14.9533 65.696 14.1647 65.696 13.143C65.696 12.1213 64.9055 11.3327 63.9465 11.3327ZM63.7269 13.9796C63.2219 13.9796 62.8559 13.6573 62.8559 13.143C62.8559 12.6287 63.2219 12.3064 63.7269 12.3064C64.232 12.3064 64.598 12.6287 64.598 13.143C64.598 13.6573 64.232 13.9796 63.7269 13.9796Z" fill="white"/>
<path d="M66.3186 14.8573H67.4166V9.85156H66.3186V14.8573Z" fill="white"/>
<path d="M69.2009 13.5544H71.7995C71.8288 13.4241 71.8434 13.287 71.8434 13.143C71.8434 12.1076 71.0529 11.3327 69.9842 11.3327C68.8276 11.3327 68.037 12.1213 68.037 13.143C68.037 14.1647 68.813 14.9533 70.0647 14.9533C70.7601 14.9533 71.3018 14.7133 71.6604 14.247L70.782 13.7738C70.6356 13.9247 70.3794 14.0344 70.0793 14.0344C69.6767 14.0344 69.34 13.911 69.2009 13.5544ZM69.179 12.7864C69.2814 12.4367 69.5596 12.2447 69.9768 12.2447C70.3062 12.2447 70.6356 12.3887 70.7528 12.7864H69.179Z" fill="white"/>
<path d="M76.053 14.9533C77.1291 14.9533 77.9928 14.1647 77.9928 13.143C77.9928 12.1213 77.1291 11.3327 76.053 11.3327C74.977 11.3327 74.1132 12.1213 74.1132 13.143C74.1132 14.1647 74.977 14.9533 76.053 14.9533ZM76.053 13.9521C75.5772 13.9521 75.2112 13.6298 75.2112 13.143C75.2112 12.6561 75.5772 12.3338 76.053 12.3338C76.5288 12.3338 76.8948 12.6561 76.8948 13.143C76.8948 13.6298 76.5288 13.9521 76.053 13.9521Z" fill="white"/>
<path d="M80.7586 11.3327C80.2755 11.3327 79.9095 11.4973 79.7119 11.751V11.4287H78.6139V14.8573H79.7119V12.9853C79.7119 12.4984 79.99 12.279 80.3926 12.279C80.744 12.279 81.0295 12.4778 81.0295 12.903V14.8573H82.1275V12.7521C82.1275 11.8264 81.498 11.3327 80.7586 11.3327Z" fill="white"/>
<path d="M86.8563 12.4161V11.4287H86.1023V10.4687L85.0043 10.7773V11.4287H84.4187V12.4161H85.0043V13.6298C85.0043 14.5898 85.4215 14.9944 86.8563 14.8573V13.9247C86.3731 13.9521 86.1023 13.9247 86.1023 13.6298V12.4161H86.8563Z" fill="white"/>
<path d="M89.6227 11.3327C89.1396 11.3327 88.7736 11.4973 88.5759 11.751V10.0573H87.4779V14.8573H88.5759V12.9853C88.5759 12.4984 88.8541 12.279 89.2567 12.279C89.6081 12.279 89.8935 12.4778 89.8935 12.903V14.8573H90.9915V12.7521C90.9915 11.8264 90.362 11.3327 89.6227 11.3327Z" fill="white"/>
<path d="M92.7264 13.5544H95.325C95.3543 13.4241 95.369 13.287 95.369 13.143C95.369 12.1076 94.5784 11.3327 93.5097 11.3327C92.3531 11.3327 91.5626 12.1213 91.5626 13.143C91.5626 14.1647 92.3385 14.9533 93.5902 14.9533C94.2856 14.9533 94.8273 14.7133 95.186 14.247L94.3076 13.7738C94.1612 13.9247 93.905 14.0344 93.6048 14.0344C93.2022 14.0344 92.8655 13.911 92.7264 13.5544ZM92.7045 12.7864C92.807 12.4367 93.0851 12.2447 93.5024 12.2447C93.8318 12.2447 94.1612 12.3887 94.2783 12.7864H92.7045Z" fill="white"/>
<path d="M50.5101 27.4287H52.6451L49.7415 19.4287H47.2527L44.3491 27.4287H46.4841L46.9111 26.1716H50.0831L50.5101 27.4287ZM47.4967 24.4573L48.4971 21.5201L49.4975 24.4573H47.4967Z" fill="white"/>
<path d="M56.9601 21.5544C56.1427 21.5544 55.5449 21.8173 55.1423 22.2516V21.7144H53.3123V29.7144H55.1423V26.8916C55.5449 27.3258 56.1427 27.5887 56.9601 27.5887C58.5583 27.5887 59.8759 26.2744 59.8759 24.5716C59.8759 22.8687 58.5583 21.5544 56.9601 21.5544ZM56.5941 25.9658C55.7523 25.9658 55.1423 25.4287 55.1423 24.5716C55.1423 23.7144 55.7523 23.1773 56.5941 23.1773C57.4359 23.1773 58.0459 23.7144 58.0459 24.5716C58.0459 25.4287 57.4359 25.9658 56.5941 25.9658Z" fill="white"/>
<path d="M64.5613 21.5544C63.7439 21.5544 63.1461 21.8173 62.7435 22.2516V21.7144H60.9135V29.7144H62.7435V26.8916C63.1461 27.3258 63.7439 27.5887 64.5613 27.5887C66.1595 27.5887 67.4771 26.2744 67.4771 24.5716C67.4771 22.8687 66.1595 21.5544 64.5613 21.5544ZM64.1953 25.9658C63.3535 25.9658 62.7435 25.4287 62.7435 24.5716C62.7435 23.7144 63.3535 23.1773 64.1953 23.1773C65.0371 23.1773 65.6471 23.7144 65.6471 24.5716C65.6471 25.4287 65.0371 25.9658 64.1953 25.9658Z" fill="white"/>
<path d="M68.5147 27.4287H70.3447V19.0858H68.5147V27.4287Z" fill="white"/>
<path d="M73.3186 25.2573H77.6496C77.6984 25.0401 77.7228 24.8116 77.7228 24.5716C77.7228 22.8458 76.4052 21.5544 74.624 21.5544C72.6964 21.5544 71.3788 22.8687 71.3788 24.5716C71.3788 26.2744 72.672 27.5887 74.7582 27.5887C75.9172 27.5887 76.82 27.1887 77.4178 26.4116L75.9538 25.623C75.7098 25.8744 75.2828 26.0573 74.7826 26.0573C74.1116 26.0573 73.5504 25.8516 73.3186 25.2573ZM73.282 23.9773C73.4528 23.3944 73.9164 23.0744 74.6118 23.0744C75.1608 23.0744 75.7098 23.3144 75.905 23.9773H73.282Z" fill="white"/>
<path d="M84.8608 27.5887C86.7152 27.5887 88.0328 26.6744 88.0328 25.1316C88.0328 23.4401 86.581 23.0173 85.2878 22.6516C83.958 22.2744 83.7506 22.023 83.7506 21.6573C83.7506 21.3373 84.0556 21.0516 84.6656 21.0516C85.4464 21.0516 85.8489 21.4058 86.1417 21.9773L87.7888 21.0744C87.1666 19.8973 86.0686 19.2687 84.6656 19.2687C83.1894 19.2687 81.7986 20.1601 81.7986 21.703C81.7986 23.2344 83.0429 23.8058 84.3117 24.1373C85.5927 24.4687 86.0808 24.663 86.0808 25.1544C86.0808 25.463 85.8489 25.8058 84.9217 25.8058C83.9579 25.8058 83.4333 25.3601 83.1283 24.6973L81.4448 25.6116C81.9206 26.7887 83.0673 27.5887 84.8608 27.5887Z" fill="white"/>
<path d="M92.3432 23.3601V21.7144H91.0866V20.1144L89.2566 20.6287V21.7144H88.2806V23.3601H89.2566V25.383C89.2566 26.983 89.952 27.6573 92.3432 27.4287V25.8744C91.538 25.9201 91.0866 25.8744 91.0866 25.383V23.3601H92.3432Z" fill="white"/>
<path d="M96.1882 27.5887C97.9816 27.5887 99.4212 26.2744 99.4212 24.5716C99.4212 22.8687 97.9816 21.5544 96.1882 21.5544C94.3948 21.5544 92.9552 22.8687 92.9552 24.5716C92.9552 26.2744 94.3948 27.5887 96.1882 27.5887ZM96.1882 25.9201C95.3952 25.9201 94.7852 25.383 94.7852 24.5716C94.7852 23.7601 95.3952 23.223 96.1882 23.223C96.9812 23.223 97.5912 23.7601 97.5912 24.5716C97.5912 25.383 96.9812 25.9201 96.1882 25.9201Z" fill="white"/>
<path d="M102.286 22.7316V21.7144H100.456V27.4287H102.286V24.8458C102.286 23.7144 103.36 23.4287 104.116 23.543V21.6001C103.348 21.6001 102.53 21.9658 102.286 22.7316Z" fill="white"/>
<path d="M106.428 25.2573H110.759C110.808 25.0401 110.832 24.8116 110.832 24.5716C110.832 22.8458 109.514 21.5544 107.733 21.5544C105.806 21.5544 104.488 22.8687 104.488 24.5716C104.488 26.2744 105.781 27.5887 107.867 27.5887C109.026 27.5887 109.929 27.1887 110.527 26.4116L109.063 25.623C108.819 25.8744 108.392 26.0573 107.892 26.0573C107.221 26.0573 106.66 25.8516 106.428 25.2573ZM106.391 23.9773C106.562 23.3944 107.026 23.0744 107.721 23.0744C108.27 23.0744 108.819 23.3144 109.014 23.9773H106.391Z" fill="white"/>
</svg>
